<?xml version="1.0" encoding="utf-8"?>
<!-- Generator: Adobe Adobe Illustrator 24.2.0, SVG Export Plug-In . SVG Version: 6.00 Build 0)  -->
<svg version="1.1" id="Layer_1" xmlns="http://www.w3.org/2000/svg" xmlns:xlink="http://www.w3.org/1999/xlink" x="0px" y="0px"
	 width="24px" height="24px" viewBox="0 0 24 24" style="enable-background:new 0 0 24 24;" xml:space="preserve">
<style type="text/css">
	.st0{fill:#6489FA;}
</style>
<path class="st0" d="M13.12,5.1V4.58c0-1.24,1-2.24,2.24-2.24h4.52c1.24,0,2.24,1,2.24,2.24V5.1c0,1.24-1,2.24-2.24,2.24h-4.52
	C14.13,7.34,13.12,6.34,13.12,5.1z"/>
<path class="st0" d="M2,5.06V4.62c0-1.26,1.02-2.28,2.28-2.28h4.44C9.98,2.34,11,3.36,11,4.62v0.44c0,1.26-1.02,2.28-2.28,2.28H4.28
	C3.02,7.34,2,6.32,2,5.06z"/>
<path class="st0" d="M2,12.36v-0.72C2,10.46,2.96,9.5,4.14,9.5h9.97c1.18,0,2.14,0.96,2.14,2.14v0.72c0,1.18-0.96,2.14-2.14,2.14
	H4.14C2.96,14.5,2,13.54,2,12.36z"/>
<path class="st0" d="M2,19.77v-0.72c0-1.18,0.96-2.14,2.14-2.14h5.72c1.18,0,2.14,0.96,2.14,2.14v0.72c0,1.18-0.96,2.14-2.14,2.14
	H4.14C2.96,21.91,2,20.95,2,19.77z"/>
</svg>
